<svg width="139" height="45" viewBox="0 0 139 45" fill="none" xmlns="http://www.w3.org/2000/svg">
<path d="M79.2184 13C76.2014 13 73.7471 15.3821 73.7471 18.3103V28.931C73.7471 33.5328 69.8891 37.2759 65.1494 37.2759H58.1149C57.9076 37.2759 57.7088 37.3558 57.5622 37.4981C57.4157 37.6403 57.3333 37.8333 57.3333 38.0345C57.3333 38.2357 57.4157 38.4286 57.5622 38.5709C57.7088 38.7132 57.9076 38.7931 58.1149 38.7931H65.1494C70.752 38.7931 75.3103 34.3688 75.3103 28.931V18.3103C75.3103 16.2196 77.0627 14.5172 79.2184 14.5172C79.4257 14.5172 79.6245 14.4373 79.7711 14.295C79.9176 14.1528 80 13.9598 80 13.7586C80 13.5574 79.9176 13.3645 79.7711 13.2222C79.6245 13.0799 79.4257 13 79.2184 13Z" fill="#792525"/>
<path d="M58.5057 38.7931C65.4125 38.7931 71.0115 33.3588 71.0115 26.6552C71.0115 19.9516 65.4125 14.5172 58.5057 14.5172C51.599 14.5172 46 19.9516 46 26.6552C46 33.3588 51.599 38.7931 58.5057 38.7931Z" fill="#EB4A4A"/>
<path d="M69.5233 36.103C68.2011 36.87 66.6897 37.2753 65.1494 37.2759H58.1149C57.9076 37.2759 57.7088 37.3558 57.5622 37.4981C57.4157 37.6403 57.3333 37.8333 57.3333 38.0345C57.3333 38.2357 57.4157 38.4286 57.5622 38.5709C57.7088 38.7132 57.9076 38.7931 58.1149 38.7931H65.1494C65.5074 38.7931 65.8622 38.7734 66.2108 38.7385C67.4625 38.0508 68.583 37.1593 69.5233 36.103Z" fill="#792525"/>
<path d="M66.5297 17.35C68.418 19.5309 69.4517 22.2892 69.4483 25.138C69.4483 28.3572 68.1307 31.4445 65.7854 33.7208C63.4401 35.9971 60.2592 37.2759 56.9425 37.2759C54.0074 37.2792 51.1655 36.276 48.9185 34.4432C50.0905 35.8058 51.5568 36.9018 53.2135 37.6534C54.8702 38.4051 56.6769 38.7942 58.5057 38.7932C61.8225 38.7932 65.0034 37.5143 67.3486 35.238C69.6939 32.9617 71.0115 29.8744 71.0115 26.6552C71.0126 24.8802 70.6117 23.1266 69.8372 21.5186C69.0628 19.9106 67.9336 18.4875 66.5297 17.35Z" fill="#792525"/>
<path d="M58.5057 22.1034C59.8007 22.1034 60.8505 21.0845 60.8505 19.8276C60.8505 18.5706 59.8007 17.5517 58.5057 17.5517C57.2107 17.5517 56.1609 18.5706 56.1609 19.8276C56.1609 21.0845 57.2107 22.1034 58.5057 22.1034Z" fill="#792525"/>
<path d="M58.5057 35.7586C59.8007 35.7586 60.8505 34.7397 60.8505 33.4828C60.8505 32.2258 59.8007 31.2069 58.5057 31.2069C57.2107 31.2069 56.1609 32.2258 56.1609 33.4828C56.1609 34.7397 57.2107 35.7586 58.5057 35.7586Z" fill="#792525"/>
<path d="M54.4185 24.4242C55.0532 23.3286 54.6526 21.941 53.5238 21.325C52.3949 20.709 50.9653 21.0979 50.3307 22.1935C49.696 23.2891 50.0966 24.6767 51.2254 25.2927C52.3543 25.9087 53.7839 25.5198 54.4185 24.4242Z" fill="#792525"/>
<path d="M66.6827 31.1154C67.3174 30.0198 66.9168 28.6323 65.7879 28.0163C64.6591 27.4003 63.2295 27.7891 62.5948 28.8847C61.9602 29.9803 62.3608 31.3679 63.4896 31.9839C64.6184 32.5999 66.048 32.2111 66.6827 31.1154Z" fill="#792525"/>
<path d="M53.5226 31.9868C54.6514 31.3708 55.052 29.9832 54.4174 28.8876C53.7827 27.792 52.3531 27.4032 51.2243 28.0192C50.0955 28.6352 49.6949 30.0227 50.3295 31.1183C50.9642 32.214 52.3938 32.6028 53.5226 31.9868Z" fill="#792525"/>
<path d="M65.7872 25.2928C66.916 24.6768 67.3166 23.2892 66.682 22.1936C66.0473 21.098 64.6177 20.7091 63.4889 21.3251C62.36 21.9411 61.9594 23.3287 62.5941 24.4243C63.2288 25.5199 64.6584 25.9088 65.7872 25.2928Z" fill="#792525"/>
<path d="M58.5057 21.3448C59.3691 21.3448 60.0689 20.6656 60.0689 19.8276C60.0689 18.9897 59.3691 18.3104 58.5057 18.3104C57.6424 18.3104 56.9425 18.9897 56.9425 19.8276C56.9425 20.6656 57.6424 21.3448 58.5057 21.3448Z" fill="#EFF2FA"/>
<path d="M58.5057 35C59.3691 35 60.0689 34.3207 60.0689 33.4828C60.0689 32.6448 59.3691 31.9655 58.5057 31.9655C57.6424 31.9655 56.9425 32.6448 56.9425 33.4828C56.9425 34.3207 57.6424 35 58.5057 35Z" fill="#EFF2FA"/>
<path d="M53.7372 24.0525C54.1603 23.3221 53.8932 22.397 53.1407 21.9864C52.3881 21.5757 51.4351 21.8349 51.012 22.5653C50.5888 23.2958 50.8559 24.2208 51.6085 24.6315C52.361 25.0421 53.3141 24.7829 53.7372 24.0525Z" fill="#EFF2FA"/>
<path d="M66.0015 30.7436C66.4246 30.0132 66.1575 29.0882 65.405 28.6775C64.6524 28.2669 63.6993 28.5261 63.2762 29.2565C62.8531 29.9869 63.1202 30.9119 63.8728 31.3226C64.6253 31.7333 65.5784 31.4741 66.0015 30.7436Z" fill="#EFF2FA"/>
<path d="M53.1396 31.3255C53.8921 30.9148 54.1592 29.9898 53.7361 29.2593C53.313 28.5289 52.3599 28.2697 51.6074 28.6804C50.8548 29.091 50.5877 30.0161 51.0109 30.7465C51.434 31.4769 52.387 31.7361 53.1396 31.3255Z" fill="#EFF2FA"/>
<path d="M65.4041 24.6314C66.1567 24.2208 66.4237 23.2957 66.0006 22.5653C65.5775 21.8349 64.6245 21.5757 63.8719 21.9863C63.1193 22.397 62.8523 23.322 63.2754 24.0525C63.6985 24.7829 64.6516 25.0421 65.4041 24.6314Z" fill="#EFF2FA"/>
<path d="M58.5057 28.1724C59.3691 28.1724 60.0689 27.4931 60.0689 26.6552C60.0689 25.8172 59.3691 25.1379 58.5057 25.1379C57.6424 25.1379 56.9425 25.8172 56.9425 26.6552C56.9425 27.4931 57.6424 28.1724 58.5057 28.1724Z" fill="#792525"/>
<path d="M22.5 36H17.1035L7.38281 19.4062V36H2.33789V10.793H7.73438L17.4551 27.4043V10.793H22.5V36ZM39.7969 26.4199C39.7969 25.7637 39.668 25.1309 39.4102 24.5215C39.1641 23.9004 38.8242 23.3555 38.3906 22.8867C37.957 22.4062 37.4473 22.0254 36.8613 21.7441C36.2871 21.4512 35.6719 21.3047 35.0156 21.3047C34.3594 21.3047 33.7383 21.416 33.1523 21.6387C32.5781 21.8613 32.0742 22.1895 31.6406 22.623C31.2188 23.0566 30.8848 23.5957 30.6387 24.2402C30.3926 24.873 30.2695 25.5996 30.2695 26.4199C30.2695 27.2051 30.3926 27.9141 30.6387 28.5469C30.8848 29.168 31.2188 29.7012 31.6406 30.1465C32.0742 30.5918 32.5781 30.9375 33.1523 31.1836C33.7383 31.418 34.3594 31.5352 35.0156 31.5352C35.6719 31.5352 36.2871 31.3945 36.8613 31.1133C37.4473 30.8203 37.957 30.4395 38.3906 29.9707C38.8242 29.4902 39.1641 28.9453 39.4102 28.3359C39.668 27.7148 39.7969 27.0762 39.7969 26.4199ZM44.6309 33.627C44.6309 34.9512 44.3789 36.1934 43.875 37.3535C43.3711 38.5137 42.6797 39.5273 41.8008 40.3945C40.9336 41.2617 39.9141 41.9473 38.7422 42.4512C37.582 42.9551 36.3398 43.207 35.0156 43.207L32.6074 43.1719V38.373L34.9805 38.4082C35.7305 38.4082 36.3691 38.3086 36.8965 38.1094C37.4238 37.9219 37.8691 37.6582 38.2324 37.3184C38.5957 36.9902 38.8828 36.6094 39.0938 36.1758C39.3164 35.7422 39.4922 35.2852 39.6211 34.8047C39.4336 35.1094 39.1641 35.3613 38.8125 35.5605C38.4609 35.748 38.0684 35.9004 37.6348 36.0176C37.2129 36.1465 36.7676 36.2344 36.2988 36.2812C35.8418 36.3281 35.4141 36.3516 35.0156 36.3516C33.6914 36.3516 32.4434 36.123 31.2715 35.666C30.1113 35.209 29.0918 34.5586 28.2129 33.7148C27.3457 32.8594 26.6602 31.8164 26.1562 30.5859C25.6523 29.3555 25.4004 27.9668 25.4004 26.4199C25.4004 25.002 25.6523 23.6836 26.1562 22.4648C26.6602 21.2461 27.3457 20.1914 28.2129 19.3008C29.0918 18.4102 30.1113 17.7129 31.2715 17.209C32.4434 16.7051 33.6914 16.4531 35.0156 16.4531C35.625 16.4531 36.2285 16.5293 36.8262 16.6816C37.4238 16.834 38.0039 17.0449 38.5664 17.3145C39.1289 17.584 39.6621 17.9004 40.166 18.2637C40.6816 18.627 41.1621 19.0195 41.6074 19.4414L43.4707 17.209H44.6309V33.627Z" fill="black"/>
<path d="M100.338 36H95.8223V24.7109C95.8223 24.401 95.7614 24.1077 95.6396 23.8311C95.529 23.5544 95.3685 23.3109 95.1582 23.1006C94.9479 22.8903 94.7044 22.7298 94.4277 22.6191C94.151 22.4974 93.8577 22.4365 93.5479 22.4365C93.238 22.4365 92.9447 22.4974 92.668 22.6191C92.4023 22.7298 92.1644 22.8903 91.9541 23.1006C91.7549 23.3109 91.5944 23.5544 91.4727 23.8311C91.362 24.1077 91.3066 24.401 91.3066 24.7109V36H86.7744V24.7109C86.7744 24.401 86.7135 24.1077 86.5918 23.8311C86.4811 23.5544 86.3206 23.3109 86.1104 23.1006C85.9001 22.8903 85.6566 22.7298 85.3799 22.6191C85.1032 22.4974 84.8099 22.4365 84.5 22.4365C84.1901 22.4365 83.8968 22.4974 83.6201 22.6191C83.3545 22.7298 83.1165 22.8903 82.9062 23.1006C82.707 23.3109 82.5465 23.5544 82.4248 23.8311C82.3141 24.1077 82.2588 24.401 82.2588 24.7109V36H77.7266V18.2197H78.8223L80.0508 19.5811C80.6816 19.0498 81.3734 18.6403 82.126 18.3525C82.8896 18.0537 83.681 17.9043 84.5 17.9043C85.3301 17.9043 86.138 18.0592 86.9238 18.3691C87.7207 18.679 88.418 19.2158 89.0156 19.9795C89.2923 19.6032 89.6077 19.2822 89.9619 19.0166C90.3161 18.751 90.6868 18.5352 91.0742 18.3691C91.4727 18.2031 91.8822 18.0869 92.3027 18.0205C92.7233 17.943 93.1383 17.9043 93.5479 17.9043C94.4886 17.9043 95.3685 18.0814 96.1875 18.4355C97.0176 18.7897 97.737 19.2767 98.3457 19.8965C98.9655 20.5052 99.4525 21.2246 99.8066 22.0547C100.161 22.8848 100.338 23.7702 100.338 24.7109V36ZM110.73 31.6504C110.908 31.7057 111.085 31.7445 111.262 31.7666C111.439 31.7777 111.616 31.7832 111.793 31.7832C112.236 31.7832 112.662 31.7223 113.071 31.6006C113.481 31.4788 113.863 31.3073 114.217 31.0859C114.582 30.8535 114.903 30.5768 115.18 30.2559C115.467 29.9238 115.7 29.5586 115.877 29.1602L119.197 32.4971C118.777 33.0947 118.29 33.6315 117.736 34.1074C117.194 34.5833 116.602 34.9873 115.96 35.3193C115.329 35.6514 114.66 35.9004 113.951 36.0664C113.254 36.2435 112.535 36.332 111.793 36.332C110.542 36.332 109.364 36.0996 108.257 35.6348C107.161 35.1699 106.198 34.5225 105.368 33.6924C104.549 32.8623 103.902 31.8773 103.426 30.7373C102.95 29.5863 102.712 28.3245 102.712 26.9521C102.712 25.5465 102.95 24.2627 103.426 23.1006C103.902 21.9385 104.549 20.9479 105.368 20.1289C106.198 19.3099 107.161 18.6735 108.257 18.2197C109.364 17.766 110.542 17.5391 111.793 17.5391C112.535 17.5391 113.259 17.6276 113.968 17.8047C114.676 17.9818 115.346 18.2363 115.977 18.5684C116.618 18.9004 117.216 19.3099 117.77 19.7969C118.323 20.2728 118.81 20.8096 119.23 21.4072L110.73 31.6504ZM113.055 22.3037C112.844 22.2262 112.634 22.1764 112.424 22.1543C112.225 22.1322 112.014 22.1211 111.793 22.1211C111.173 22.1211 110.587 22.2373 110.033 22.4697C109.491 22.6911 109.015 23.012 108.605 23.4326C108.207 23.8532 107.892 24.3623 107.659 24.96C107.427 25.5465 107.311 26.2106 107.311 26.9521C107.311 27.1182 107.316 27.3063 107.327 27.5166C107.349 27.7269 107.377 27.9427 107.41 28.1641C107.454 28.3743 107.504 28.5791 107.56 28.7783C107.615 28.9775 107.687 29.1546 107.775 29.3096L113.055 22.3037ZM126.054 36H121.521V18.2197H122.617L124.111 19.9463C124.842 19.2822 125.666 18.7731 126.585 18.4189C127.515 18.0537 128.483 17.8711 129.49 17.8711C130.575 17.8711 131.599 18.0814 132.562 18.502C133.524 18.9115 134.366 19.4814 135.085 20.2119C135.804 20.9313 136.369 21.778 136.778 22.752C137.199 23.7148 137.409 24.7441 137.409 25.8398V36H132.877V25.8398C132.877 25.375 132.788 24.9378 132.611 24.5283C132.434 24.1077 132.191 23.7425 131.881 23.4326C131.571 23.1227 131.211 22.8792 130.802 22.7021C130.392 22.5251 129.955 22.4365 129.49 22.4365C129.014 22.4365 128.566 22.5251 128.146 22.7021C127.725 22.8792 127.36 23.1227 127.05 23.4326C126.74 23.7425 126.496 24.1077 126.319 24.5283C126.142 24.9378 126.054 25.375 126.054 25.8398V36Z" fill="black"/>
</svg>
