<svg width="34" height="26" viewBox="0 0 34 26" fill="none" xmlns="http://www.w3.org/2000/svg">
<path d="M33.2184 0C30.2014 0 27.7471 2.38207 27.7471 5.31035V15.931C27.7471 20.5328 23.8891 24.2759 19.1494 24.2759H12.115C11.9077 24.2759 11.7089 24.3558 11.5623 24.4981C11.4157 24.6403 11.3333 24.8333 11.3333 25.0345C11.3333 25.2357 11.4157 25.4286 11.5623 25.5709C11.7089 25.7132 11.9077 25.7931 12.115 25.7931H19.1494C24.752 25.7931 29.3104 21.3688 29.3104 15.931V5.31035C29.3104 3.21959 31.0627 1.51724 33.2184 1.51724C33.4257 1.51724 33.6245 1.43732 33.7711 1.29505C33.9177 1.15278 34 0.959819 34 0.758621C34 0.557422 33.9177 0.364464 33.7711 0.222195C33.6245 0.079926 33.4257 0 33.2184 0Z" fill="#792525"/>
<path d="M12.5057 25.7931C19.4125 25.7931 25.0115 20.3587 25.0115 13.6551C25.0115 6.95155 19.4125 1.51721 12.5057 1.51721C5.59901 1.51721 0 6.95155 0 13.6551C0 20.3587 5.59901 25.7931 12.5057 25.7931Z" fill="#EB4A4A"/>
<path d="M23.5233 23.103C22.2012 23.87 20.6897 24.2753 19.1494 24.2759H12.115C11.9077 24.2759 11.7089 24.3558 11.5623 24.4981C11.4157 24.6403 11.3333 24.8333 11.3333 25.0345C11.3333 25.2357 11.4157 25.4286 11.5623 25.5709C11.7089 25.7132 11.9077 25.7931 12.115 25.7931H19.1494C19.5074 25.7931 19.8623 25.7734 20.2109 25.7385C21.4625 25.0508 22.583 24.1593 23.5233 23.103Z" fill="#792525"/>
<path d="M20.5297 4.34998C22.418 6.53089 23.4517 9.28922 23.4483 12.138C23.4483 15.3572 22.1307 18.4445 19.7854 20.7208C17.4401 22.9971 14.2592 24.2759 10.9425 24.2759C8.00744 24.2792 5.16553 23.276 2.91852 21.4432C4.09053 22.8058 5.55679 23.9018 7.21351 24.6534C8.87023 25.4051 10.6769 25.7942 12.5057 25.7932C15.8225 25.7932 19.0034 24.5143 21.3486 22.238C23.6939 19.9617 25.0115 16.8744 25.0115 13.6552C25.0126 11.8802 24.6117 10.1266 23.8372 8.51864C23.0628 6.91065 21.9336 5.48752 20.5297 4.34998Z" fill="#792525"/>
<path d="M12.5057 9.10342C13.8008 9.10342 14.8506 8.08448 14.8506 6.82756C14.8506 5.57063 13.8008 4.5517 12.5057 4.5517C11.2107 4.5517 10.1609 5.57063 10.1609 6.82756C10.1609 8.08448 11.2107 9.10342 12.5057 9.10342Z" fill="#792525"/>
<path d="M12.5057 22.7586C13.8008 22.7586 14.8506 21.7397 14.8506 20.4828C14.8506 19.2258 13.8008 18.2069 12.5057 18.2069C11.2107 18.2069 10.1609 19.2258 10.1609 20.4828C10.1609 21.7397 11.2107 22.7586 12.5057 22.7586Z" fill="#792525"/>
<path d="M8.41854 11.4242C9.0532 10.3286 8.6526 8.94104 7.52377 8.32504C6.39493 7.70904 4.96534 8.09786 4.33068 9.19349C3.69601 10.2891 4.09662 11.6767 5.22545 12.2927C6.35428 12.9087 7.78387 12.5198 8.41854 11.4242Z" fill="#792525"/>
<path d="M20.6827 18.1154C21.3174 17.0198 20.9168 15.6323 19.788 15.0163C18.6591 14.4003 17.2295 14.7891 16.5949 15.8847C15.9602 16.9803 16.3608 18.3679 17.4896 18.9839C18.6185 19.5999 20.0481 19.2111 20.6827 18.1154Z" fill="#792525"/>
<path d="M7.52261 18.9868C8.65144 18.3708 9.05204 16.9832 8.41738 15.8876C7.78271 14.792 6.35312 14.4032 5.22429 15.0192C4.09546 15.6352 3.69485 17.0227 4.32952 18.1183C4.96418 19.214 6.39377 19.6028 7.52261 18.9868Z" fill="#792525"/>
<path d="M19.7872 12.2928C20.916 11.6768 21.3166 10.2892 20.682 9.19359C20.0473 8.09795 18.6177 7.70913 17.4889 8.32513C16.36 8.94113 15.9594 10.3287 16.5941 11.4243C17.2288 12.5199 18.6584 12.9088 19.7872 12.2928Z" fill="#792525"/>
<path d="M12.5058 8.34485C13.3691 8.34485 14.069 7.66555 14.069 6.82761C14.069 5.98966 13.3691 5.31036 12.5058 5.31036C11.6424 5.31036 10.9425 5.98966 10.9425 6.82761C10.9425 7.66555 11.6424 8.34485 12.5058 8.34485Z" fill="#EFF2FA"/>
<path d="M12.5058 22C13.3691 22 14.069 21.3207 14.069 20.4828C14.069 19.6448 13.3691 18.9655 12.5058 18.9655C11.6424 18.9655 10.9425 19.6448 10.9425 20.4828C10.9425 21.3207 11.6424 22 12.5058 22Z" fill="#EFF2FA"/>
<path d="M7.73723 11.0525C8.16033 10.3221 7.89327 9.39703 7.14071 8.98637C6.38816 8.5757 5.43509 8.83492 5.01199 9.56534C4.58888 10.2958 4.85595 11.2208 5.6085 11.6315C6.36105 12.0421 7.31412 11.7829 7.73723 11.0525Z" fill="#EFF2FA"/>
<path d="M20.0014 17.7436C20.4245 17.0132 20.1575 16.0882 19.4049 15.6775C18.6523 15.2669 17.6993 15.5261 17.2762 16.2565C16.8531 16.9869 17.1201 17.9119 17.8727 18.3226C18.6252 18.7333 19.5783 18.4741 20.0014 17.7436Z" fill="#EFF2FA"/>
<path d="M7.13955 18.3255C7.89211 17.9148 8.15917 16.9898 7.73607 16.2593C7.31296 15.5289 6.35989 15.2697 5.60734 15.6804C4.85479 16.091 4.58772 17.0161 5.01083 17.7465C5.43394 18.4769 6.387 18.7361 7.13955 18.3255Z" fill="#EFF2FA"/>
<path d="M19.4042 11.6314C20.1567 11.2208 20.4238 10.2957 20.0007 9.56532C19.5776 8.8349 18.6245 8.57568 17.872 8.98635C17.1194 9.39701 16.8523 10.322 17.2754 11.0525C17.6986 11.7829 18.6516 12.0421 19.4042 11.6314Z" fill="#EFF2FA"/>
<path d="M12.5058 15.1724C13.3691 15.1724 14.069 14.4931 14.069 13.6552C14.069 12.8172 13.3691 12.1379 12.5058 12.1379C11.6424 12.1379 10.9425 12.8172 10.9425 13.6552C10.9425 14.4931 11.6424 15.1724 12.5058 15.1724Z" fill="#792525"/>
</svg>
