<svg width="475" height="402" viewBox="0 0 475 402" fill="none" xmlns="http://www.w3.org/2000/svg">
<path d="M392.572 185.581H236.135C234.886 185.58 233.69 185.083 232.807 184.201C231.924 183.318 231.428 182.121 231.426 180.873V61.2919C231.428 60.0436 231.924 58.8469 232.807 57.9642C233.69 57.0816 234.886 56.5851 236.135 56.5837H392.572C393.82 56.5851 395.017 57.0816 395.9 57.9642C396.782 58.8469 397.279 60.0436 397.28 61.2919V180.873C397.279 182.121 396.782 183.318 395.9 184.201C395.017 185.083 393.82 185.58 392.572 185.581Z" fill="white"/>
<path d="M392.572 186.165H236.135C234.732 186.163 233.387 185.605 232.394 184.613C231.402 183.621 230.844 182.276 230.843 180.873V61.2918C230.844 59.8888 231.402 58.5437 232.394 57.5516C233.387 56.5596 234.732 56.0016 236.135 56H392.572C393.975 56.0016 395.32 56.5596 396.312 57.5516C397.304 58.5437 397.862 59.8888 397.864 61.2918V180.873C397.862 182.276 397.304 183.621 396.312 184.613C395.32 185.605 393.975 186.163 392.572 186.165ZM236.135 57.1674C235.041 57.1686 233.993 57.6035 233.22 58.3767C232.446 59.1499 232.011 60.1983 232.01 61.2918V180.873C232.011 181.966 232.446 183.015 233.219 183.788C233.993 184.561 235.041 184.996 236.135 184.998H392.572C393.665 184.996 394.714 184.561 395.487 183.788C396.26 183.015 396.695 181.966 396.696 180.873V61.2918C396.695 60.1983 396.26 59.1499 395.487 58.3767C394.714 57.6035 393.665 57.1686 392.572 57.1674H236.135Z" fill="#F0F0F0"/>
<path d="M231.788 162.817V180.873C231.789 182.025 232.248 183.13 233.063 183.945C233.877 184.76 234.982 185.218 236.134 185.22H392.572C393.724 185.218 394.829 184.76 395.644 183.945C396.459 183.13 396.917 182.025 396.919 180.873V162.817H231.788Z" fill="#F0F0F0"/>
<path d="M233.262 57.3455L232.632 58.3285L396.604 163.308L397.233 162.325L233.262 57.3455Z" fill="#F0F0F0"/>
<path d="M334.868 365.319L342.391 365.319L345.971 336.299L334.866 336.299L334.868 365.319Z" fill="#FFB6B6"/>
<path d="M332.949 362.863L335.066 362.863L343.334 359.5L347.765 362.862C350.269 362.862 352.672 363.857 354.442 365.628C356.213 367.398 357.208 369.8 357.208 372.304V372.611L332.949 372.612L332.949 362.863Z" fill="#2F2E41"/>
<path d="M266.887 355.538L273.621 358.893L289.77 334.518L279.831 329.565L266.887 355.538Z" fill="#FFB6B6"/>
<path d="M266.265 352.483L268.16 353.427L277.06 354.106L279.526 359.092L279.527 359.092C281.768 360.209 283.473 362.171 284.268 364.546C285.063 366.921 284.882 369.514 283.765 371.755L283.628 372.03L261.916 361.209L266.265 352.483Z" fill="#2F2E41"/>
<path d="M337.008 234.093L289.17 235.341L290.002 258.636C290.002 258.636 289.17 264.875 290.834 266.539C292.498 268.203 293.33 268.203 292.498 271.115C291.666 274.027 289.515 301.848 289.515 301.848C289.515 301.848 269.882 336.564 270.714 337.396C271.546 338.228 272.378 337.396 271.546 339.476C270.714 341.556 269.882 340.724 270.714 341.556C271.451 342.351 272.145 343.184 272.794 344.052H286.353C286.353 344.052 287.111 339.892 287.111 339.476C287.111 339.06 287.943 336.564 287.943 336.148C287.943 335.732 311.633 310.633 311.633 310.633L316.625 269.035L328.688 309.801C328.688 309.801 328.688 345.575 329.52 346.407C330.352 347.239 330.352 346.823 329.936 348.487C329.52 350.15 327.856 349.735 329.104 350.982C330.352 352.23 330.768 350.15 330.352 352.23L329.936 354.31L345.918 354.489C345.918 354.489 347.582 350.982 346.75 349.735C345.918 348.487 345.968 348.827 346.983 346.785C347.998 344.743 348.413 344.327 347.998 343.911C347.582 343.495 347.582 341.282 347.582 341.282C347.582 341.282 341.583 259.468 341.583 258.22C341.552 257.578 341.67 256.937 341.929 256.348V254.654L340.335 248.652L337.008 234.093Z" fill="#2F2E41"/>
<path d="M319.789 144.416C337.082 144.416 351.1 130.398 351.1 113.105C351.1 95.8128 337.082 81.7946 319.789 81.7946C302.497 81.7946 288.479 95.8128 288.479 113.105C288.479 130.398 302.497 144.416 319.789 144.416Z" fill="#EB4A4A"/>
<path d="M312.6 127.753C312.156 127.752 311.72 127.638 311.333 127.423C310.918 127.2 310.572 126.867 310.332 126.461C310.092 126.056 309.967 125.592 309.971 125.121V103.423C309.971 102.952 310.097 102.491 310.337 102.086C310.576 101.681 310.92 101.347 311.333 101.121C311.745 100.894 312.211 100.783 312.681 100.798C313.151 100.813 313.609 100.954 314.006 101.206L334.589 112.055C334.962 112.292 335.27 112.62 335.482 113.007C335.695 113.395 335.807 113.83 335.807 114.272C335.807 114.714 335.695 115.149 335.482 115.537C335.27 115.924 334.962 116.252 334.589 116.489L314.006 127.338C313.586 127.608 313.099 127.752 312.6 127.753Z" fill="white"/>
<path d="M322.171 155.342C322.171 155.342 306.179 153.743 305.113 155.342C304.417 156.656 304.051 158.119 304.047 159.606C304.047 159.606 297.65 162.272 296.584 161.206C295.517 160.139 294.451 156.941 291.253 158.007C288.054 159.073 281.927 177.52 281.927 177.52C281.927 177.52 282.511 177.52 285.922 194.79C288.223 206.439 287.842 216.007 288.095 222.522C288.136 223.595 286.567 227.389 286.597 228.302C286.731 232.37 288.381 232.02 288.587 232.638C289.12 234.237 285.922 243.833 305.113 243.833C324.304 243.833 338.164 242.767 338.164 239.035C338.164 237.153 340.11 236.052 339.714 230.053C339.605 228.407 336.768 222.788 336.747 221.035C336.713 218.772 336.797 216.508 337 214.254C337.197 212.001 337.586 209.77 338.164 207.583C341.362 195.856 342.632 174.602 342.632 174.602L337.379 164.095L325.903 162.272C325.903 162.272 325.37 155.875 322.171 155.342Z" fill="#3F3D56"/>
<path d="M318.74 151.058C326.12 149.054 330.478 141.447 328.474 134.067C326.471 126.687 318.864 122.329 311.484 124.333C304.104 126.337 299.745 133.944 301.749 141.324C303.753 148.704 311.36 153.062 318.74 151.058Z" fill="#FFB6B6"/>
<path d="M456 373.5C456.001 373.697 455.966 373.892 455.897 374.075C455.829 374.257 455.729 374.423 455.603 374.562C455.476 374.701 455.326 374.812 455.161 374.887C454.995 374.962 454.818 375.001 454.639 375H88.3609C87.9999 375 87.6538 374.842 87.3986 374.561C87.1434 374.279 87 373.898 87 373.5C87 373.102 87.1434 372.721 87.3986 372.439C87.6538 372.158 87.9999 372 88.3609 372H454.639C454.818 371.999 454.995 372.038 455.16 372.113C455.326 372.188 455.476 372.299 455.603 372.438C455.729 372.577 455.829 372.743 455.897 372.925C455.966 373.107 456.001 373.303 456 373.5Z" fill="#EB4A4A"/>
<g filter="url(#filter0_f_113_2128)">
<path d="M456 378C456.001 378.657 455.966 379.308 455.897 379.916C455.829 380.523 455.729 381.075 455.603 381.54C455.476 382.005 455.326 382.373 455.161 382.623C454.995 382.874 454.818 383.002 454.639 383H88.3609C87.9999 383 87.6538 382.473 87.3986 381.535C87.1434 380.598 87 379.326 87 378C87 376.674 87.1434 375.402 87.3986 374.464C87.6538 373.527 87.9999 373 88.3609 373H454.639C454.818 372.998 454.995 373.126 455.16 373.377C455.326 373.627 455.476 373.995 455.603 374.46C455.729 374.925 455.829 375.477 455.897 376.084C455.966 376.692 456.001 377.343 456 378Z" fill="#EB4A4A"/>
</g>
<path d="M378.665 236.04C378.027 236.052 377.394 235.924 376.81 235.664C376.227 235.405 375.707 235.021 375.288 234.539C374.869 234.057 374.561 233.489 374.385 232.875C374.21 232.261 374.171 231.616 374.271 230.986L350.03 217.713L357.125 213.876L379.589 227.367C380.637 227.606 381.561 228.222 382.186 229.096C382.811 229.971 383.093 231.045 382.979 232.114C382.865 233.183 382.363 234.173 381.568 234.897C380.773 235.62 379.74 236.027 378.665 236.04Z" fill="#FFB8B8"/>
<path d="M368.63 229.719L350.111 222.938L341.779 215.126L339.709 214.072L332.575 209.064L332.554 209.001L321.217 175.491C320.697 172.739 321.248 169.893 322.758 167.534C324.268 165.175 326.622 163.483 329.339 162.803C330.842 162.429 332.406 162.378 333.93 162.653C335.454 162.927 336.902 163.521 338.18 164.396C339.457 165.27 340.535 166.406 341.342 167.727C342.149 169.048 342.668 170.525 342.863 172.061L346.511 200.78L357.228 210.528L359.874 211.04L360.483 213.889L372.715 222.714L368.63 229.719Z" fill="#3F3D56"/>
<path d="M297.207 95.7842C297.223 96.4226 297.097 97.0565 296.841 97.6412C296.584 98.226 296.203 98.7474 295.723 99.1688C295.243 99.5901 294.677 99.9011 294.064 100.08C293.451 100.259 292.806 100.301 292.175 100.204L279.023 124.511L275.151 117.435L288.53 94.9039C288.764 93.8546 289.375 92.9275 290.246 92.2983C291.118 91.669 292.19 91.3814 293.26 91.4899C294.329 91.5984 295.322 92.0955 296.05 92.887C296.777 93.6784 297.189 94.7093 297.207 95.7842Z" fill="#FFB8B8"/>
<path d="M299.064 163.54L290.817 151.54C290.817 151.54 292.114 151.617 291.292 148.931C291.069 148.201 288.912 145.679 288.667 144.804C288.452 144.034 288.231 143.212 288.012 142.347C287.224 139.247 282.971 136.38 283.704 132.588C287.207 114.493 288.958 110.991 289.495 108.093C289.495 108.093 286.45 96.8046 281.509 103.777C276.567 110.749 268.734 128.47 270.807 137.276C272.881 146.082 280.806 174.809 283.245 176.945C285.684 179.082 299.064 163.54 299.064 163.54Z" fill="#3F3D56"/>
<path d="M325.157 121.317C324.132 121.287 324.484 119.354 323.657 118.737C323.653 118.756 323.649 118.775 323.645 118.793C323.537 119.211 323.297 119.582 322.962 119.854C322.626 120.125 322.213 120.281 321.782 120.299C321.351 120.318 320.925 120.197 320.568 119.956C320.211 119.714 319.941 119.364 319.797 118.957C319.66 118.487 319.412 118.056 319.074 117.701C318.736 117.347 318.317 117.078 317.854 116.919C317.803 118.71 316.448 120.265 314.831 121.039C313.214 121.813 311.371 121.941 309.579 121.968C307.787 121.896 305.993 122.031 304.232 122.373C302.494 122.811 300.804 123.842 300.062 125.474C299.319 127.105 299.849 129.35 301.472 130.11C300.215 130.116 299.148 131.154 298.713 132.334C298.356 133.545 298.263 134.817 298.44 136.067C298.793 140.693 299.655 145.674 303.024 148.864C305.591 151.296 309.266 152.275 312.802 152.261C316.338 152.247 315.716 151.922 319.135 151.019C319.135 151.019 322.386 141.701 321.568 140.784C320.749 139.868 320.069 138.694 320.217 137.475C320.365 136.255 321.676 135.162 322.814 135.626C322.623 135.137 322.479 135.044 322.389 135.069C322.446 134.93 322.496 134.788 322.539 134.644C322.753 133.909 323.139 133.235 323.664 132.678C324.189 132.121 324.839 131.696 325.56 131.44C326.289 131.203 327.072 131.195 327.805 131.417C328.538 131.639 329.186 132.08 329.661 132.681C333.405 129.169 331.082 121.493 325.157 121.317Z" fill="#2F2E41"/>
<path d="M237.99 367.024L230.674 367.024L227.193 338.806L237.991 338.806L237.99 367.024Z" fill="#A0616A"/>
<path d="M237.795 364.633L229.989 361.463L229.758 361.368L225.448 364.633C223.082 364.633 220.808 365.546 219.1 367.182C217.391 368.818 216.38 371.051 216.278 373.414C216.266 373.544 216.266 373.679 216.266 373.815V374.116H239.855V364.633H237.795Z" fill="#2F2E41"/>
<path d="M220.857 360.216L213.955 362.644L201.306 337.18L211.492 333.597L220.857 360.216Z" fill="#A0616A"/>
<path d="M219.879 358.025L211.463 357.625L211.215 357.613L208.232 362.124C206.001 362.908 204.159 364.524 203.09 366.635C202.021 368.745 201.809 371.186 202.496 373.45C202.528 373.576 202.574 373.704 202.619 373.832L202.719 374.116L224.971 366.287L221.823 357.342L219.879 358.025Z" fill="#2F2E41"/>
<path d="M240.575 245.353C247.268 245.093 238.977 298.43 238.977 298.43C238.977 298.43 241.402 345.258 240.888 347.715C240.374 350.173 240.823 356.8 240.823 356.8C239.512 354.414 225.983 356.215 225.983 356.215L224.143 308.755L214.747 270.729L201.719 296.219L214.205 335.344C214.205 335.344 219.262 340.023 218.724 341.872C218.186 343.721 204.942 347.89 202.508 347.985C200.074 348.079 201.173 344.99 201.055 341.947C200.937 338.905 189.484 310.709 185.456 301.115C181.428 291.521 184.56 277.993 186.616 268.164C188.672 258.334 199.49 239.887 199.49 239.887C212.918 224.741 233.882 245.612 240.575 245.353Z" fill="#2F2E41"/>
<path d="M159.009 202.249C159.375 202.95 159.891 203.561 160.519 204.041C161.148 204.52 161.874 204.856 162.646 205.025C163.419 205.194 164.219 205.191 164.99 205.017C165.761 204.843 166.485 204.502 167.11 204.018L183.205 214.519L183.156 204.532L167.879 196.092C166.997 195.095 165.779 194.457 164.458 194.298C163.136 194.14 161.802 194.471 160.709 195.23C159.615 195.989 158.838 197.123 158.525 198.417C158.212 199.71 158.384 201.074 159.009 202.249Z" fill="#A0616A"/>
<path d="M237.099 253.903C220.501 253.904 211.354 250.581 206.497 247.614C200.557 243.987 199.541 240.161 199.501 240L199.489 239.954L200.067 232.679L200.32 232.113C201.485 229.505 201.639 226.557 200.753 223.842L200.735 223.786L200.74 223.728L204.621 173.393L218.355 168.894L222.351 164.88L240.14 164.622L242.619 169.647L256.643 174.927L249.753 215.939L246.45 221.632L247.779 227.833L247.77 227.889L243.437 253.752L243.198 253.762C241.061 253.858 239.028 253.905 237.099 253.903Z" fill="#3F3D56"/>
<path d="M194.158 222.501L187.647 218.64L187.239 218.051C186.41 216.858 185.313 215.876 184.036 215.184C182.758 214.492 181.337 214.109 179.885 214.066L179.809 214.064L170.841 208.791L174.558 197.901L188.617 202.055L198.419 177.701C198.957 176.363 199.856 175.201 201.015 174.344C202.175 173.487 203.549 172.968 204.986 172.845C206.422 172.722 207.864 173 209.152 173.648C210.44 174.297 211.523 175.289 212.281 176.516C213.057 177.798 213.459 179.272 213.442 180.77V196.706L213.384 196.785L194.158 222.501Z" fill="#3F3D56"/>
<path d="M237.692 244.537C237.831 243.758 238.14 243.02 238.595 242.374C239.05 241.728 239.642 241.189 240.328 240.796C241.014 240.403 241.778 240.166 242.566 240.1C243.354 240.034 244.146 240.142 244.888 240.416L257.085 225.564L260.038 235.104L248.003 247.745C247.461 248.96 246.491 249.934 245.279 250.483C244.066 251.031 242.694 251.116 241.423 250.72C240.152 250.325 239.07 249.477 238.383 248.337C237.695 247.198 237.449 245.845 237.692 244.537Z" fill="#A0616A"/>
<path d="M255.928 242.66L247.829 234.56L252.985 221.998L260.457 211.796C252.495 207.919 246.518 198.737 242.188 191.136L242.139 191.051L243.217 182.605C243.47 180.629 244.261 178.761 245.505 177.206C246.586 175.853 247.976 174.779 249.557 174.074C251.139 173.368 252.866 173.051 254.595 173.15C256.324 173.249 258.005 173.76 259.495 174.642C260.986 175.523 262.245 176.748 263.165 178.215L277.686 210.495L277.522 210.739L265.842 230.649L262.655 232.716L255.928 242.66Z" fill="#3F3D56"/>
<path d="M244.018 147.69C243.484 151.582 241.427 155.103 238.298 157.48C235.169 159.856 231.226 160.893 227.333 160.363C223.44 159.834 219.917 157.78 217.537 154.654C215.157 151.528 214.116 147.585 214.641 143.692L214.67 143.482C215.284 139.64 217.384 136.194 220.516 133.887C223.648 131.58 227.561 130.596 231.412 131.149C235.263 131.701 238.742 133.744 241.1 136.839C243.457 139.933 244.503 143.831 244.013 147.69L244.018 147.69Z" fill="#A0616A"/>
<path d="M240.245 155.326C241.006 153.779 241.788 152.119 241.574 150.409C241.36 148.699 239.683 147.064 238.036 147.572C237.051 147.876 236.307 148.849 235.278 148.898C233.861 148.967 233.049 147.346 232.608 145.998L230.813 140.508C229.088 141.852 227.089 142.799 224.956 143.281C222.824 143.763 220.612 143.768 218.477 143.296C216.81 142.915 215.125 142.172 214.147 140.769C213.17 139.366 213.175 137.189 214.517 136.128C215.174 135.608 216.05 135.411 216.678 134.855C217.068 134.511 217.337 134.05 217.445 133.542C217.552 133.033 217.493 132.503 217.277 132.03C217.06 131.557 216.696 131.167 216.24 130.916C215.784 130.666 215.26 130.569 214.744 130.64L219.265 130.075L217.918 127.639C218.43 127.987 219.01 128.225 219.619 128.337C220.228 128.449 220.854 128.432 221.456 128.288C222.673 128.069 223.818 127.568 225.008 127.234C227.893 126.498 230.939 126.723 233.683 127.875C236.428 129.028 238.722 131.045 240.216 133.62C241.328 133.248 242.527 133.224 243.654 133.549C244.781 133.874 245.783 134.535 246.526 135.442C247.736 136.978 248.065 139.028 248.112 140.983C248.2 144.838 247.36 148.658 245.662 152.12C245.175 153.219 244.475 154.212 243.603 155.04C243.164 155.451 242.64 155.76 242.069 155.947C241.498 156.134 240.892 156.193 240.295 156.122" fill="#2F2E41"/>
<path d="M0.0347885 140.073C0.276663 143.526 1.29378 146.88 3.01049 149.885C6.62852 156.239 12.833 160.839 19.5154 163.574C27.864 166.99 37.1705 167.095 46.0305 166.333C54.2598 165.626 62.4053 163.986 70.6648 163.648C77.0524 163.444 83.4463 163.596 89.8168 164.105C102.176 164.982 114.485 166.61 126.713 168.583C130.025 169.111 133.33 169.678 136.628 170.284C136.94 170.312 137.248 170.369 137.549 170.455C137.609 170.48 137.705 170.461 137.76 170.495C137.86 170.558 137.357 170.336 137.662 170.588C138.086 171.033 138.464 171.52 138.791 172.041L143.307 177.853C144.603 179.52 145.805 181.545 147.479 182.859C148.659 183.771 150.083 184.312 151.571 184.416C153.058 184.52 154.544 184.181 155.839 183.441C157.192 182.586 158.272 181.361 158.948 179.91C159.987 178.004 161.226 176.215 162.645 174.573C168.018 168.305 175.486 164.45 181.732 159.175C184.758 156.725 187.34 153.774 189.366 150.449C191.094 147.441 192.169 144.102 192.52 140.651C193.268 133.641 191.117 126.492 187.499 120.529C183.564 114.123 177.911 108.948 171.182 105.594C163.623 101.743 155.258 99.867 146.873 98.9322C137.971 97.9397 128.965 97.9428 120.02 98.043C109.98 98.1547 99.959 98.5962 89.9558 99.3674C79.9391 100.143 69.9618 101.245 60.0241 102.674C50.4883 104.045 40.8361 105.474 31.502 107.899C23.2561 110.042 15.0334 113.392 8.87593 119.461C3.40107 124.858 -0.406808 132.242 0.0347885 140.073Z" fill="#EB4A4A"/>
<path d="M46.1272 142.303C45.7196 142.285 45.3202 142.182 44.9541 142.002C44.588 141.822 44.2632 141.568 44.0001 141.256C43.7371 140.944 43.5415 140.581 43.4256 140.19C43.3097 139.798 43.2761 139.387 43.3268 138.982L43.5387 137.314C43.5791 136.994 43.5413 136.669 43.4284 136.367C43.3155 136.065 43.1309 135.795 42.8905 135.58L41.6377 134.461C41.2274 134.094 40.9278 133.62 40.7729 133.092C40.6179 132.564 40.6138 132.004 40.761 131.474C40.9081 130.943 41.2006 130.465 41.6055 130.093C42.0103 129.72 42.5113 129.468 43.0518 129.366L44.7036 129.052C45.0202 128.992 45.3175 128.856 45.5698 128.655C45.8221 128.455 46.0219 128.196 46.152 127.901L46.83 126.362C47.0519 125.858 47.4103 125.427 47.8645 125.117C48.3187 124.806 48.8506 124.629 49.4002 124.606C49.9497 124.582 50.495 124.712 50.9743 124.982C51.4537 125.252 51.848 125.65 52.1127 126.133L52.9208 127.606C53.0759 127.889 53.2974 128.13 53.5664 128.309C53.8353 128.487 54.1436 128.597 54.4646 128.629L56.1368 128.798C56.6841 128.854 57.2051 129.061 57.6407 129.397C58.0763 129.733 58.4092 130.184 58.6017 130.7C58.7942 131.215 58.8387 131.774 58.7302 132.313C58.6216 132.853 58.3642 133.351 57.9873 133.752L56.8356 134.976C56.6146 135.21 56.454 135.495 56.3677 135.806C56.2814 136.117 56.2721 136.443 56.3405 136.758L56.6958 138.403C56.8121 138.94 56.7757 139.499 56.5907 140.017C56.4057 140.535 56.0795 140.991 55.649 141.334C55.2184 141.676 54.7007 141.891 54.1544 141.954C53.6081 142.018 53.0549 141.927 52.5574 141.692L51.0368 140.976C50.7453 140.838 50.4245 140.773 50.1022 140.787C49.78 140.801 49.4659 140.893 49.1873 141.055L47.7344 141.902C47.248 142.186 46.6903 142.326 46.1272 142.303Z" fill="white"/>
<path d="M69.8025 141.616C69.0524 141.581 68.3431 141.264 67.8166 140.729C67.4984 140.392 67.2611 139.987 67.1226 139.545C66.9841 139.103 66.9481 138.635 67.0171 138.177L67.2115 136.646C67.2529 136.32 67.2145 135.989 67.0995 135.681C66.9845 135.374 66.7964 135.099 66.5515 134.88L65.3893 133.841C65.0465 133.549 64.7733 133.183 64.5895 132.772C64.4057 132.36 64.316 131.913 64.3269 131.462C64.3523 130.795 64.6036 130.156 65.0397 129.65C65.4758 129.144 66.0708 128.802 66.7271 128.678L68.3597 128.368C68.6825 128.307 68.9855 128.168 69.2427 127.963C69.4999 127.759 69.7034 127.495 69.8358 127.194L70.4442 125.812C70.6617 125.288 71.0197 124.834 71.4787 124.5C71.9378 124.166 72.4801 123.965 73.0459 123.919C73.6005 123.888 74.1527 124.015 74.6381 124.285C75.1235 124.555 75.5223 124.957 75.788 125.445L76.5867 126.902C76.7448 127.19 76.9707 127.435 77.2449 127.617C77.5191 127.799 77.8333 127.911 78.1605 127.944L79.7103 128.1C80.1598 128.136 80.5958 128.271 80.9866 128.496C81.3773 128.721 81.7128 129.03 81.9687 129.402C82.3399 129.956 82.5118 130.621 82.4561 131.286C82.4005 131.952 82.1207 132.578 81.6625 133.064L80.5243 134.274C80.2994 134.513 80.136 134.803 80.0481 135.12C79.9603 135.436 79.9506 135.769 80.0199 136.09L80.3479 137.608C80.4531 138.046 80.4597 138.502 80.3672 138.943C80.2747 139.384 80.0854 139.799 79.8131 140.158C79.4017 140.685 78.8227 141.056 78.1718 141.21C77.5209 141.364 76.8369 141.292 76.2327 141.005L74.7278 140.296C74.431 140.156 74.1045 140.09 73.7767 140.104C73.4488 140.119 73.1294 140.212 72.8458 140.378L71.4097 141.214C70.9233 141.499 70.3656 141.638 69.8025 141.616Z" fill="white"/>
<path d="M93.539 141.515C93.1313 141.497 92.7319 141.395 92.3658 141.214C91.9998 141.034 91.675 140.78 91.4119 140.468C91.1488 140.156 90.9532 139.793 90.8373 139.402C90.7214 139.01 90.6878 138.599 90.7386 138.194L90.9504 136.526C90.9909 136.206 90.953 135.881 90.8401 135.579C90.7272 135.277 90.5427 135.007 90.3023 134.792L89.0494 133.673C88.6391 133.306 88.3396 132.832 88.1846 132.304C88.0297 131.776 88.0256 131.216 88.1727 130.686C88.3198 130.156 88.6124 129.677 89.0173 129.305C89.4221 128.932 89.9231 128.68 90.4636 128.578L92.1153 128.264C92.4319 128.204 92.7292 128.068 92.9815 127.867C93.2339 127.667 93.4337 127.408 93.5638 127.113L94.2417 125.574C94.4637 125.07 94.822 124.639 95.2762 124.329C95.7304 124.019 96.2623 123.841 96.8119 123.818C97.3614 123.794 97.9067 123.924 98.3861 124.194C98.8654 124.464 99.2597 124.862 99.5244 125.345L100.333 126.818C100.488 127.101 100.709 127.342 100.978 127.521C101.247 127.699 101.555 127.809 101.876 127.841L103.549 128.01C104.096 128.066 104.617 128.273 105.052 128.609C105.488 128.945 105.821 129.396 106.013 129.912C106.206 130.427 106.25 130.986 106.142 131.525C106.033 132.065 105.776 132.563 105.399 132.964L104.247 134.188C104.026 134.423 103.866 134.707 103.779 135.018C103.693 135.329 103.684 135.656 103.752 135.97L104.108 137.615C104.224 138.152 104.187 138.712 104.002 139.229C103.817 139.747 103.491 140.203 103.061 140.546C102.63 140.888 102.112 141.103 101.566 141.166C101.02 141.23 100.467 141.139 99.9692 140.905L98.4486 140.188C98.157 140.05 97.8362 139.985 97.514 139.999C97.1917 140.013 96.8777 140.105 96.5991 140.267L95.1461 141.114C94.6598 141.398 94.1021 141.538 93.539 141.515Z" fill="white"/>
<path opacity="0.2" d="M116.627 140.889C116.219 140.871 115.82 140.768 115.454 140.588C115.088 140.408 114.763 140.153 114.5 139.841C114.237 139.529 114.041 139.166 113.925 138.775C113.809 138.384 113.776 137.973 113.827 137.568L114.038 135.9C114.079 135.58 114.041 135.255 113.928 134.953C113.815 134.651 113.631 134.381 113.39 134.166L112.137 133.046C111.727 132.68 111.428 132.206 111.273 131.678C111.118 131.15 111.114 130.589 111.261 130.059C111.408 129.529 111.7 129.051 112.105 128.678C112.51 128.306 113.011 128.054 113.552 127.951L115.203 127.638C115.52 127.578 115.817 127.441 116.07 127.241C116.322 127.04 116.522 126.782 116.652 126.487L117.33 124.947C117.552 124.444 117.91 124.013 118.364 123.702C118.818 123.392 119.35 123.215 119.9 123.191C120.449 123.167 120.995 123.298 121.474 123.568C121.953 123.837 122.348 124.236 122.612 124.718L123.421 126.192C123.576 126.475 123.797 126.716 124.066 126.894C124.335 127.072 124.643 127.183 124.964 127.215L126.637 127.384C127.184 127.439 127.705 127.647 128.14 127.983C128.576 128.319 128.909 128.77 129.101 129.285C129.294 129.801 129.338 130.36 129.23 130.899C129.121 131.438 128.864 131.936 128.487 132.337L127.335 133.562C127.114 133.796 126.954 134.081 126.867 134.392C126.781 134.702 126.772 135.029 126.84 135.344L127.196 136.988C127.312 137.526 127.275 138.085 127.09 138.603C126.905 139.121 126.579 139.577 126.149 139.919C125.718 140.261 125.2 140.476 124.654 140.54C124.108 140.603 123.555 140.513 123.057 140.278L121.537 139.562C121.245 139.424 120.924 139.359 120.602 139.372C120.28 139.386 119.966 139.478 119.687 139.641L118.234 140.487C117.748 140.772 117.19 140.911 116.627 140.889Z" fill="black"/>
<path opacity="0.2" d="M139.715 140.263C139.307 140.244 138.908 140.142 138.542 139.961C138.176 139.781 137.851 139.527 137.588 139.215C137.325 138.903 137.129 138.54 137.013 138.149C136.897 137.758 136.864 137.347 136.914 136.942L137.126 135.274C137.167 134.954 137.129 134.629 137.016 134.327C136.903 134.025 136.719 133.754 136.478 133.539L135.225 132.42C134.815 132.053 134.515 131.579 134.361 131.052C134.206 130.524 134.201 129.963 134.349 129.433C134.496 128.903 134.788 128.424 135.193 128.052C135.598 127.679 136.099 127.428 136.639 127.325L138.291 127.011C138.608 126.951 138.905 126.815 139.157 126.615C139.41 126.414 139.61 126.155 139.74 125.86L140.418 124.321C140.64 123.818 140.998 123.386 141.452 123.076C141.906 122.766 142.438 122.589 142.988 122.565C143.537 122.541 144.083 122.671 144.562 122.941C145.041 123.211 145.436 123.61 145.7 124.092L146.508 125.566C146.663 125.849 146.885 126.09 147.154 126.268C147.423 126.446 147.731 126.556 148.052 126.589L149.724 126.758C150.272 126.813 150.793 127.02 151.228 127.356C151.664 127.692 151.997 128.144 152.189 128.659C152.382 129.174 152.426 129.733 152.318 130.273C152.209 130.812 151.952 131.31 151.575 131.711L150.423 132.935C150.202 133.17 150.042 133.455 149.955 133.765C149.869 134.076 149.86 134.403 149.928 134.718L150.283 136.362C150.4 136.899 150.363 137.459 150.178 137.977C149.993 138.495 149.667 138.951 149.237 139.293C148.806 139.635 148.288 139.85 147.742 139.914C147.196 139.977 146.643 139.886 146.145 139.652L144.624 138.935C144.333 138.797 144.012 138.732 143.69 138.746C143.368 138.76 143.054 138.852 142.775 139.015L141.322 139.861C140.836 140.145 140.278 140.285 139.715 140.263Z" fill="black"/>
<path d="M130.01 0L88.931 11.1587L94.9079 37.8137C92.9752 36.5169 90.6506 35.7589 88.1483 35.7589C81.439 35.7589 76 41.1979 76 47.9072C76 54.6165 81.439 60.0555 88.1483 60.0555C94.8577 60.0555 100.297 54.6166 100.297 47.9072C100.297 45.5752 99.628 43.4045 98.4889 41.5544L93.7502 20.4214L129.188 9.27985L132.429 25.0218C130.484 23.6985 128.136 22.9236 125.606 22.9236C118.896 22.9236 113.457 28.3627 113.457 35.072C113.457 41.7813 118.896 47.2203 125.606 47.2203C132.315 47.2203 137.754 41.7814 137.754 35.072C137.754 32.7152 137.072 30.5225 135.91 28.6599L130.01 0Z" fill="#EB4A4A"/>
<path d="M170.297 24.9169C163.657 24.9169 158.274 30.2994 158.274 36.9391C158.274 38.816 158.717 40.5854 159.484 42.1682L166.346 70.4722L170.24 69.5281L164.947 47.6938C166.56 48.4976 168.372 48.9613 170.297 48.9613C176.936 48.9613 182.319 43.5787 182.319 36.9391C182.319 30.2994 176.936 24.9169 170.297 24.9169Z" fill="#EB4A4A"/>
<path d="M219.222 87.2987L212.41 60.0555L208.275 61.0275L213.603 82.3367C211.964 81.5947 210.143 81.1684 208.215 81.1684C201.165 81.1684 195.45 86.7093 195.45 93.5445C195.45 100.38 201.165 105.921 208.215 105.921C215.264 105.921 220.979 100.38 220.979 93.5445C220.979 91.2634 220.332 89.1336 219.222 87.2987Z" fill="#EB4A4A"/>
<defs>
<filter id="filter0_f_113_2128" x="68" y="354" width="407" height="48" filterUnits="userSpaceOnUse" color-interpolation-filters="sRGB">
<feFlood flood-opacity="0" result="BackgroundImageFix"/>
<feBlend mode="normal" in="SourceGraphic" in2="BackgroundImageFix" result="shape"/>
<feGaussianBlur stdDeviation="9.5" result="effect1_foregroundBlur_113_2128"/>
</filter>
</defs>
</svg>
